<svg xmlns="http://www.w3.org/2000/svg" version="1.1" xmlns:xlink="http://www.w3.org/1999/xlink" xmlns:svgjs="http://svgjs.dev/svgjs" width="1440" height="560" preserveAspectRatio="none" viewBox="0 0 1440 560">
    <g mask="url(&quot;#SvgjsMask1014&quot;)" fill="none">
        <rect width="1440" height="560" x="0" y="0" fill="rgba(38, 38, 38, 1)"></rect>
        <path d="M-90.45 370.19L-90.45 370.19" stroke="rgba(255, 255, 136, 1)" stroke-width="1.5"></path>
        <path d="M-90.45 370.19L40.73 380.82" stroke="rgba(255, 255, 136, 1)" stroke-width="1.5"></path>
        <path d="M-90.45 370.19L-90.98 522.8" stroke="rgba(255, 255, 136, 1)" stroke-width="1.5"></path>
        <path d="M-90.45 370.19L94.66 526.82" stroke="rgba(255, 255, 136, 1)" stroke-width="1.5"></path>
        <path d="M-90.45 370.19L-61.75 652.15" stroke="rgba(255, 255, 136, 1)" stroke-width="1.5"></path>
        <path d="M-90.45 370.19L212.38 343.42" stroke="rgba(255, 255, 136, 1)" stroke-width="1.5"></path>
        <path d="M-90.98 522.8L-90.98 522.8" stroke="rgba(255, 255, 136, 1)" stroke-width="1.5"></path>
        <path d="M-90.98 522.8L-61.75 652.15" stroke="rgba(255, 255, 136, 1)" stroke-width="1.5"></path>
        <path d="M-61.75 652.15L-61.75 652.15" stroke="rgba(255, 255, 136, 1)" stroke-width="1.5"></path>
        <path d="M-61.75 652.15L60.21 675.14" stroke="rgba(255, 255, 136, 1)" stroke-width="1.5"></path>
        <path d="M40.73 380.82L40.73 380.82" stroke="rgba(255, 255, 136, 1)" stroke-width="1.5"></path>
        <path d="M40.73 380.82L94.66 526.82" stroke="rgba(255, 255, 136, 1)" stroke-width="1.5"></path>
        <path d="M40.73 380.82L212.38 343.42" stroke="rgba(255, 255, 136, 1)" stroke-width="1.5"></path>
        <path d="M94.66 526.82L94.66 526.82" stroke="rgba(255, 255, 136, 1)" stroke-width="1.5"></path>
        <path d="M94.66 526.82L244.65 536.46" stroke="rgba(255, 255, 136, 1)" stroke-width="1.5"></path>
        <path d="M94.66 526.82L60.21 675.14" stroke="rgba(255, 255, 136, 1)" stroke-width="1.5"></path>
        <path d="M94.66 526.82L-90.98 522.8" stroke="rgba(255, 255, 136, 1)" stroke-width="1.5"></path>
        <path d="M60.21 675.14L60.21 675.14" stroke="rgba(255, 255, 136, 1)" stroke-width="1.5"></path>
        <path d="M60.21 675.14L205.26 683.32" stroke="rgba(255, 255, 136, 1)" stroke-width="1.5"></path>
        <path d="M60.21 675.14L-90.98 522.8" stroke="rgba(255, 255, 136, 1)" stroke-width="1.5"></path>
        <path d="M60.21 675.14L244.65 536.46" stroke="rgba(255, 255, 136, 1)" stroke-width="1.5"></path>
        <path d="M60.21 675.14L40.73 380.82" stroke="rgba(255, 255, 136, 1)" stroke-width="1.5"></path>
        <path d="M212.38 343.42L212.38 343.42" stroke="rgba(255, 255, 136, 1)" stroke-width="1.5"></path>
        <path d="M212.38 343.42L372.77 408.56" stroke="rgba(255, 255, 136, 1)" stroke-width="1.5"></path>
        <path d="M212.38 343.42L244.65 536.46" stroke="rgba(255, 255, 136, 1)" stroke-width="1.5"></path>
        <path d="M212.38 343.42L94.66 526.82" stroke="rgba(255, 255, 136, 1)" stroke-width="1.5"></path>
        <path d="M244.65 536.46L244.65 536.46" stroke="rgba(255, 255, 136, 1)" stroke-width="1.5"></path>
        <path d="M244.65 536.46L358.82 551.04" stroke="rgba(255, 255, 136, 1)" stroke-width="1.5"></path>
        <path d="M244.65 536.46L205.26 683.32" stroke="rgba(255, 255, 136, 1)" stroke-width="1.5"></path>
        <path d="M244.65 536.46L372.77 408.56" stroke="rgba(255, 255, 136, 1)" stroke-width="1.5"></path>
        <path d="M205.26 683.32L205.26 683.32" stroke="rgba(255, 255, 136, 1)" stroke-width="1.5"></path>
        <path d="M205.26 683.32L94.66 526.82" stroke="rgba(255, 255, 136, 1)" stroke-width="1.5"></path>
        <path d="M205.26 683.32L400.53 695.72" stroke="rgba(255, 255, 136, 1)" stroke-width="1.5"></path>
        <path d="M205.26 683.32L358.82 551.04" stroke="rgba(255, 255, 136, 1)" stroke-width="1.5"></path>
        <path d="M372.77 408.56L372.77 408.56" stroke="rgba(255, 255, 136, 1)" stroke-width="1.5"></path>
        <path d="M372.77 408.56L511.14 377.32" stroke="rgba(255, 255, 136, 1)" stroke-width="1.5"></path>
        <path d="M372.77 408.56L358.82 551.04" stroke="rgba(255, 255, 136, 1)" stroke-width="1.5"></path>
        <path d="M358.82 551.04L358.82 551.04" stroke="rgba(255, 255, 136, 1)" stroke-width="1.5"></path>
        <path d="M358.82 551.04L400.53 695.72" stroke="rgba(255, 255, 136, 1)" stroke-width="1.5"></path>
        <path d="M358.82 551.04L532.69 554.04" stroke="rgba(255, 255, 136, 1)" stroke-width="1.5"></path>
        <path d="M400.53 695.72L400.53 695.72" stroke="rgba(255, 255, 136, 1)" stroke-width="1.5"></path>
        <path d="M400.53 695.72L551.62 659.15" stroke="rgba(255, 255, 136, 1)" stroke-width="1.5"></path>
        <path d="M400.53 695.72L532.69 554.04" stroke="rgba(255, 255, 136, 1)" stroke-width="1.5"></path>
        <path d="M400.53 695.72L244.65 536.46" stroke="rgba(255, 255, 136, 1)" stroke-width="1.5"></path>
        <path d="M511.14 377.32L511.14 377.32" stroke="rgba(255, 255, 136, 1)" stroke-width="1.5"></path>
        <path d="M511.14 377.32L674.42 385.48" stroke="rgba(255, 255, 136, 1)" stroke-width="1.5"></path>
        <path d="M511.14 377.32L532.69 554.04" stroke="rgba(255, 255, 136, 1)" stroke-width="1.5"></path>
        <path d="M511.14 377.32L358.82 551.04" stroke="rgba(255, 255, 136, 1)" stroke-width="1.5"></path>
        <path d="M511.14 377.32L706.26 236.43" stroke="rgba(255, 255, 136, 1)" stroke-width="1.5"></path>
        <path d="M532.69 554.04L532.69 554.04" stroke="rgba(255, 255, 136, 1)" stroke-width="1.5"></path>
        <path d="M532.69 554.04L551.62 659.15" stroke="rgba(255, 255, 136, 1)" stroke-width="1.5"></path>
        <path d="M532.69 554.04L663.48 661.61" stroke="rgba(255, 255, 136, 1)" stroke-width="1.5"></path>
        <path d="M551.62 659.15L551.62 659.15" stroke="rgba(255, 255, 136, 1)" stroke-width="1.5"></path>
        <path d="M706.26 236.43L706.26 236.43" stroke="rgba(255, 255, 136, 1)" stroke-width="1.5"></path>
        <path d="M706.26 236.43L846.68 207.47" stroke="rgba(255, 255, 136, 1)" stroke-width="1.5"></path>
        <path d="M706.26 236.43L674.42 385.48" stroke="rgba(255, 255, 136, 1)" stroke-width="1.5"></path>
        <path d="M674.42 385.48L674.42 385.48" stroke="rgba(255, 255, 136, 1)" stroke-width="1.5"></path>
        <path d="M674.42 385.48L707.51 534.19" stroke="rgba(255, 255, 136, 1)" stroke-width="1.5"></path>
        <path d="M674.42 385.48L857.11 348.08" stroke="rgba(255, 255, 136, 1)" stroke-width="1.5"></path>
        <path d="M674.42 385.48L532.69 554.04" stroke="rgba(255, 255, 136, 1)" stroke-width="1.5"></path>
        <path d="M707.51 534.19L707.51 534.19" stroke="rgba(255, 255, 136, 1)" stroke-width="1.5"></path>
        <path d="M707.51 534.19L663.48 661.61" stroke="rgba(255, 255, 136, 1)" stroke-width="1.5"></path>
        <path d="M707.51 534.19L857.94 554.1" stroke="rgba(255, 255, 136, 1)" stroke-width="1.5"></path>
        <path d="M707.51 534.19L532.69 554.04" stroke="rgba(255, 255, 136, 1)" stroke-width="1.5"></path>
        <path d="M707.51 534.19L551.62 659.15" stroke="rgba(255, 255, 136, 1)" stroke-width="1.5"></path>
        <path d="M663.48 661.61L663.48 661.61" stroke="rgba(255, 255, 136, 1)" stroke-width="1.5"></path>
        <path d="M663.48 661.61L551.62 659.15" stroke="rgba(255, 255, 136, 1)" stroke-width="1.5"></path>
        <path d="M663.48 661.61L833.76 705.39" stroke="rgba(255, 255, 136, 1)" stroke-width="1.5"></path>
        <path d="M663.48 661.61L857.94 554.1" stroke="rgba(255, 255, 136, 1)" stroke-width="1.5"></path>
        <path d="M846.68 207.47L846.68 207.47" stroke="rgba(255, 255, 136, 1)" stroke-width="1.5"></path>
        <path d="M846.68 207.47L942.94 247.09" stroke="rgba(255, 255, 136, 1)" stroke-width="1.5"></path>
        <path d="M846.68 207.47L857.11 348.08" stroke="rgba(255, 255, 136, 1)" stroke-width="1.5"></path>
        <path d="M846.68 207.47L941.98 48.73" stroke="rgba(255, 255, 136, 1)" stroke-width="1.5"></path>
        <path d="M846.68 207.47L1011.57 372.28" stroke="rgba(255, 255, 136, 1)" stroke-width="1.5"></path>
        <path d="M846.68 207.47L674.42 385.48" stroke="rgba(255, 255, 136, 1)" stroke-width="1.5"></path>
        <path d="M857.11 348.08L857.11 348.08" stroke="rgba(255, 255, 136, 1)" stroke-width="1.5"></path>
        <path d="M857.11 348.08L942.94 247.09" stroke="rgba(255, 255, 136, 1)" stroke-width="1.5"></path>
        <path d="M857.11 348.08L1011.57 372.28" stroke="rgba(255, 255, 136, 1)" stroke-width="1.5"></path>
        <path d="M857.11 348.08L706.26 236.43" stroke="rgba(255, 255, 136, 1)" stroke-width="1.5"></path>
        <path d="M857.94 554.1L857.94 554.1" stroke="rgba(255, 255, 136, 1)" stroke-width="1.5"></path>
        <path d="M857.94 554.1L965.87 548.44" stroke="rgba(255, 255, 136, 1)" stroke-width="1.5"></path>
        <path d="M833.76 705.39L833.76 705.39" stroke="rgba(255, 255, 136, 1)" stroke-width="1.5"></path>
        <path d="M833.76 705.39L857.94 554.1" stroke="rgba(255, 255, 136, 1)" stroke-width="1.5"></path>
        <path d="M948.02 -69.23L948.02 -69.23" stroke="rgba(255, 255, 136, 1)" stroke-width="1.5"></path>
        <path d="M948.02 -69.23L941.98 48.73" stroke="rgba(255, 255, 136, 1)" stroke-width="1.5"></path>
        <path d="M948.02 -69.23L1135.09 -40.63" stroke="rgba(255, 255, 136, 1)" stroke-width="1.5"></path>
        <path d="M948.02 -69.23L1161.76 54.84" stroke="rgba(255, 255, 136, 1)" stroke-width="1.5"></path>
        <path d="M948.02 -69.23L846.68 207.47" stroke="rgba(255, 255, 136, 1)" stroke-width="1.5"></path>
        <path d="M941.98 48.73L941.98 48.73" stroke="rgba(255, 255, 136, 1)" stroke-width="1.5"></path>
        <path d="M941.98 48.73L942.94 247.09" stroke="rgba(255, 255, 136, 1)" stroke-width="1.5"></path>
        <path d="M942.94 247.09L942.94 247.09" stroke="rgba(255, 255, 136, 1)" stroke-width="1.5"></path>
        <path d="M942.94 247.09L1011.57 372.28" stroke="rgba(255, 255, 136, 1)" stroke-width="1.5"></path>
        <path d="M1011.57 372.28L1011.57 372.28" stroke="rgba(255, 255, 136, 1)" stroke-width="1.5"></path>
        <path d="M1011.57 372.28L1115.82 351.31" stroke="rgba(255, 255, 136, 1)" stroke-width="1.5"></path>
        <path d="M965.87 548.44L965.87 548.44" stroke="rgba(255, 255, 136, 1)" stroke-width="1.5"></path>
        <path d="M965.87 548.44L1011.49 702.61" stroke="rgba(255, 255, 136, 1)" stroke-width="1.5"></path>
        <path d="M1011.49 702.61L1011.49 702.61" stroke="rgba(255, 255, 136, 1)" stroke-width="1.5"></path>
        <path d="M1011.49 702.61L833.76 705.39" stroke="rgba(255, 255, 136, 1)" stroke-width="1.5"></path>
        <path d="M1011.49 702.61L857.94 554.1" stroke="rgba(255, 255, 136, 1)" stroke-width="1.5"></path>
        <path d="M1011.49 702.61L1152.46 492.4" stroke="rgba(255, 255, 136, 1)" stroke-width="1.5"></path>
        <path d="M1011.49 702.61L1237.73 554.43" stroke="rgba(255, 255, 136, 1)" stroke-width="1.5"></path>
        <path d="M1011.49 702.61L1288.24 662.09" stroke="rgba(255, 255, 136, 1)" stroke-width="1.5"></path>
        <path d="M1135.09 -40.63L1135.09 -40.63" stroke="rgba(255, 255, 136, 1)" stroke-width="1.5"></path>
        <path d="M1135.09 -40.63L1161.76 54.84" stroke="rgba(255, 255, 136, 1)" stroke-width="1.5"></path>
        <path d="M1135.09 -40.63L1269.58 -72.52" stroke="rgba(255, 255, 136, 1)" stroke-width="1.5"></path>
        <path d="M1161.76 54.84L1161.76 54.84" stroke="rgba(255, 255, 136, 1)" stroke-width="1.5"></path>
        <path d="M1161.76 54.84L1269.87 61.3" stroke="rgba(255, 255, 136, 1)" stroke-width="1.5"></path>
        <path d="M1160.03 234.96L1160.03 234.96" stroke="rgba(255, 255, 136, 1)" stroke-width="1.5"></path>
        <path d="M1160.03 234.96L1115.82 351.31" stroke="rgba(255, 255, 136, 1)" stroke-width="1.5"></path>
        <path d="M1160.03 234.96L1282.7 211.67" stroke="rgba(255, 255, 136, 1)" stroke-width="1.5"></path>
        <path d="M1160.03 234.96L1161.76 54.84" stroke="rgba(255, 255, 136, 1)" stroke-width="1.5"></path>
        <path d="M1160.03 234.96L1011.57 372.28" stroke="rgba(255, 255, 136, 1)" stroke-width="1.5"></path>
        <path d="M1160.03 234.96L1269.87 61.3" stroke="rgba(255, 255, 136, 1)" stroke-width="1.5"></path>
        <path d="M1115.82 351.31L1115.82 351.31" stroke="rgba(255, 255, 136, 1)" stroke-width="1.5"></path>
        <path d="M1115.82 351.31L1152.46 492.4" stroke="rgba(255, 255, 136, 1)" stroke-width="1.5"></path>
        <path d="M1115.82 351.31L1298.41 402.06" stroke="rgba(255, 255, 136, 1)" stroke-width="1.5"></path>
        <path d="M1115.82 351.31L942.94 247.09" stroke="rgba(255, 255, 136, 1)" stroke-width="1.5"></path>
        <path d="M1152.46 492.4L1152.46 492.4" stroke="rgba(255, 255, 136, 1)" stroke-width="1.5"></path>
        <path d="M1152.46 492.4L1237.73 554.43" stroke="rgba(255, 255, 136, 1)" stroke-width="1.5"></path>
        <path d="M1152.46 492.4L1298.41 402.06" stroke="rgba(255, 255, 136, 1)" stroke-width="1.5"></path>
        <path d="M1152.46 492.4L1011.57 372.28" stroke="rgba(255, 255, 136, 1)" stroke-width="1.5"></path>
        <path d="M1152.46 492.4L965.87 548.44" stroke="rgba(255, 255, 136, 1)" stroke-width="1.5"></path>
        <path d="M1152.46 492.4L1288.24 662.09" stroke="rgba(255, 255, 136, 1)" stroke-width="1.5"></path>
        <path d="M1269.58 -72.52L1269.58 -72.52" stroke="rgba(255, 255, 136, 1)" stroke-width="1.5"></path>
        <path d="M1269.58 -72.52L1269.87 61.3" stroke="rgba(255, 255, 136, 1)" stroke-width="1.5"></path>
        <path d="M1269.87 61.3L1269.87 61.3" stroke="rgba(255, 255, 136, 1)" stroke-width="1.5"></path>
        <path d="M1282.7 211.67L1282.7 211.67" stroke="rgba(255, 255, 136, 1)" stroke-width="1.5"></path>
        <path d="M1282.7 211.67L1269.87 61.3" stroke="rgba(255, 255, 136, 1)" stroke-width="1.5"></path>
        <path d="M1298.41 402.06L1298.41 402.06" stroke="rgba(255, 255, 136, 1)" stroke-width="1.5"></path>
        <path d="M1298.41 402.06L1403.79 399" stroke="rgba(255, 255, 136, 1)" stroke-width="1.5"></path>
        <path d="M1298.41 402.06L1237.73 554.43" stroke="rgba(255, 255, 136, 1)" stroke-width="1.5"></path>
        <path d="M1298.41 402.06L1282.7 211.67" stroke="rgba(255, 255, 136, 1)" stroke-width="1.5"></path>
        <path d="M1298.41 402.06L1458.15 541.06" stroke="rgba(255, 255, 136, 1)" stroke-width="1.5"></path>
        <path d="M1237.73 554.43L1237.73 554.43" stroke="rgba(255, 255, 136, 1)" stroke-width="1.5"></path>
        <path d="M1237.73 554.43L1288.24 662.09" stroke="rgba(255, 255, 136, 1)" stroke-width="1.5"></path>
        <path d="M1237.73 554.43L1393.98 691.6" stroke="rgba(255, 255, 136, 1)" stroke-width="1.5"></path>
        <path d="M1237.73 554.43L1458.15 541.06" stroke="rgba(255, 255, 136, 1)" stroke-width="1.5"></path>
        <path d="M1288.24 662.09L1288.24 662.09" stroke="rgba(255, 255, 136, 1)" stroke-width="1.5"></path>
        <path d="M1288.24 662.09L1393.98 691.6" stroke="rgba(255, 255, 136, 1)" stroke-width="1.5"></path>
        <path d="M1288.24 662.09L1458.15 541.06" stroke="rgba(255, 255, 136, 1)" stroke-width="1.5"></path>
        <path d="M1459.26 -81.52L1459.26 -81.52" stroke="rgba(255, 255, 136, 1)" stroke-width="1.5"></path>
        <path d="M1459.26 -81.52L1603.69 -95.97" stroke="rgba(255, 255, 136, 1)" stroke-width="1.5"></path>
        <path d="M1459.26 -81.52L1413.3 95.62" stroke="rgba(255, 255, 136, 1)" stroke-width="1.5"></path>
        <path d="M1459.26 -81.52L1269.58 -72.52" stroke="rgba(255, 255, 136, 1)" stroke-width="1.5"></path>
        <path d="M1459.26 -81.52L1606.41 44.53" stroke="rgba(255, 255, 136, 1)" stroke-width="1.5"></path>
        <path d="M1459.26 -81.52L1269.87 61.3" stroke="rgba(255, 255, 136, 1)" stroke-width="1.5"></path>
        <path d="M1413.3 95.62L1413.3 95.62" stroke="rgba(255, 255, 136, 1)" stroke-width="1.5"></path>
        <path d="M1413.3 95.62L1269.87 61.3" stroke="rgba(255, 255, 136, 1)" stroke-width="1.5"></path>
        <path d="M1413.3 95.62L1282.7 211.67" stroke="rgba(255, 255, 136, 1)" stroke-width="1.5"></path>
        <path d="M1413.3 95.62L1549.37 238.59" stroke="rgba(255, 255, 136, 1)" stroke-width="1.5"></path>
        <path d="M1413.3 95.62L1606.41 44.53" stroke="rgba(255, 255, 136, 1)" stroke-width="1.5"></path>
        <path d="M1403.79 399L1403.79 399" stroke="rgba(255, 255, 136, 1)" stroke-width="1.5"></path>
        <path d="M1403.79 399L1458.15 541.06" stroke="rgba(255, 255, 136, 1)" stroke-width="1.5"></path>
        <path d="M1403.79 399L1565.88 348.73" stroke="rgba(255, 255, 136, 1)" stroke-width="1.5"></path>
        <path d="M1403.79 399L1549.37 238.59" stroke="rgba(255, 255, 136, 1)" stroke-width="1.5"></path>
        <path d="M1403.79 399L1282.7 211.67" stroke="rgba(255, 255, 136, 1)" stroke-width="1.5"></path>
        <path d="M1458.15 541.06L1458.15 541.06" stroke="rgba(255, 255, 136, 1)" stroke-width="1.5"></path>
        <path d="M1458.15 541.06L1610.95 552.82" stroke="rgba(255, 255, 136, 1)" stroke-width="1.5"></path>
        <path d="M1458.15 541.06L1393.98 691.6" stroke="rgba(255, 255, 136, 1)" stroke-width="1.5"></path>
        <path d="M1458.15 541.06L1605.32 663.25" stroke="rgba(255, 255, 136, 1)" stroke-width="1.5"></path>
        <path d="M1393.98 691.6L1393.98 691.6" stroke="rgba(255, 255, 136, 1)" stroke-width="1.5"></path>
        <path d="M1393.98 691.6L1605.32 663.25" stroke="rgba(255, 255, 136, 1)" stroke-width="1.5"></path>
        <path d="M1393.98 691.6L1610.95 552.82" stroke="rgba(255, 255, 136, 1)" stroke-width="1.5"></path>
        <path d="M1603.69 -95.97L1603.69 -95.97" stroke="rgba(255, 255, 136, 1)" stroke-width="1.5"></path>
        <path d="M1603.69 -95.97L1606.41 44.53" stroke="rgba(255, 255, 136, 1)" stroke-width="1.5"></path>
        <path d="M1603.69 -95.97L1413.3 95.62" stroke="rgba(255, 255, 136, 1)" stroke-width="1.5"></path>
        <path d="M1603.69 -95.97L1269.58 -72.52" stroke="rgba(255, 255, 136, 1)" stroke-width="1.5"></path>
        <path d="M1603.69 -95.97L1549.37 238.59" stroke="rgba(255, 255, 136, 1)" stroke-width="1.5"></path>
        <path d="M1603.69 -95.97L1269.87 61.3" stroke="rgba(255, 255, 136, 1)" stroke-width="1.5"></path>
        <path d="M1606.41 44.53L1606.41 44.53" stroke="rgba(255, 255, 136, 1)" stroke-width="1.5"></path>
        <path d="M1549.37 238.59L1549.37 238.59" stroke="rgba(255, 255, 136, 1)" stroke-width="1.5"></path>
        <path d="M1549.37 238.59L1565.88 348.73" stroke="rgba(255, 255, 136, 1)" stroke-width="1.5"></path>
        <path d="M1549.37 238.59L1606.41 44.53" stroke="rgba(255, 255, 136, 1)" stroke-width="1.5"></path>
        <path d="M1565.88 348.73L1565.88 348.73" stroke="rgba(255, 255, 136, 1)" stroke-width="1.5"></path>
        <path d="M1565.88 348.73L1610.95 552.82" stroke="rgba(255, 255, 136, 1)" stroke-width="1.5"></path>
        <path d="M1565.88 348.73L1458.15 541.06" stroke="rgba(255, 255, 136, 1)" stroke-width="1.5"></path>
        <path d="M1565.88 348.73L1298.41 402.06" stroke="rgba(255, 255, 136, 1)" stroke-width="1.5"></path>
        <path d="M1565.88 348.73L1413.3 95.62" stroke="rgba(255, 255, 136, 1)" stroke-width="1.5"></path>
        <path d="M1610.95 552.82L1610.95 552.82" stroke="rgba(255, 255, 136, 1)" stroke-width="1.5"></path>
        <path d="M1610.95 552.82L1605.32 663.25" stroke="rgba(255, 255, 136, 1)" stroke-width="1.5"></path>
        <path d="M1605.32 663.25L1605.32 663.25" stroke="rgba(255, 255, 136, 1)" stroke-width="1.5"></path>
        <circle r="5" cx="-90.45" cy="370.19" fill="rgba(255, 255, 136, 1)"></circle>
        <circle r="5" cx="-90.98" cy="522.8" fill="rgba(255, 255, 136, 1)"></circle>
        <circle r="5" cx="-61.75" cy="652.15" fill="rgba(255, 255, 136, 1)"></circle>
        <circle r="5" cx="40.73" cy="380.82" fill="rgba(255, 255, 136, 1)"></circle>
        <circle r="5" cx="94.66" cy="526.82" fill="rgba(255, 255, 136, 1)"></circle>
        <circle r="5" cx="60.21" cy="675.14" fill="rgba(255, 255, 136, 1)"></circle>
        <circle r="5" cx="212.38" cy="343.42" fill="rgba(255, 255, 136, 1)"></circle>
        <circle r="5" cx="244.65" cy="536.46" fill="rgba(255, 255, 136, 1)"></circle>
        <circle r="5" cx="205.26" cy="683.32" fill="rgba(255, 255, 136, 1)"></circle>
        <circle r="5" cx="372.77" cy="408.56" fill="rgba(255, 255, 136, 1)"></circle>
        <circle r="5" cx="358.82" cy="551.04" fill="rgba(255, 255, 136, 1)"></circle>
        <circle r="5" cx="400.53" cy="695.72" fill="rgba(255, 255, 136, 1)"></circle>
        <circle r="5" cx="511.14" cy="377.32" fill="rgba(255, 255, 136, 1)"></circle>
        <circle r="5" cx="532.69" cy="554.04" fill="rgba(255, 255, 136, 1)"></circle>
        <circle r="5" cx="551.62" cy="659.15" fill="rgba(255, 255, 136, 1)"></circle>
        <circle r="5" cx="706.26" cy="236.43" fill="rgba(255, 255, 136, 1)"></circle>
        <circle r="5" cx="674.42" cy="385.48" fill="rgba(255, 255, 136, 1)"></circle>
        <circle r="5" cx="707.51" cy="534.19" fill="rgba(255, 255, 136, 1)"></circle>
        <circle r="5" cx="663.48" cy="661.61" fill="rgba(255, 255, 136, 1)"></circle>
        <circle r="5" cx="846.68" cy="207.47" fill="rgba(255, 255, 136, 1)"></circle>
        <circle r="5" cx="857.11" cy="348.08" fill="rgba(255, 255, 136, 1)"></circle>
        <circle r="5" cx="857.94" cy="554.1" fill="rgba(255, 255, 136, 1)"></circle>
        <circle r="5" cx="833.76" cy="705.39" fill="rgba(255, 255, 136, 1)"></circle>
        <circle r="5" cx="948.02" cy="-69.23" fill="rgba(255, 255, 136, 1)"></circle>
        <circle r="5" cx="941.98" cy="48.73" fill="rgba(255, 255, 136, 1)"></circle>
        <circle r="5" cx="942.94" cy="247.09" fill="rgba(255, 255, 136, 1)"></circle>
        <circle r="5" cx="1011.57" cy="372.28" fill="rgba(255, 255, 136, 1)"></circle>
        <circle r="5" cx="965.87" cy="548.44" fill="rgba(255, 255, 136, 1)"></circle>
        <circle r="5" cx="1011.49" cy="702.61" fill="rgba(255, 255, 136, 1)"></circle>
        <circle r="5" cx="1135.09" cy="-40.63" fill="rgba(255, 255, 136, 1)"></circle>
        <circle r="5" cx="1161.76" cy="54.84" fill="rgba(255, 255, 136, 1)"></circle>
        <circle r="5" cx="1160.03" cy="234.96" fill="rgba(255, 255, 136, 1)"></circle>
        <circle r="5" cx="1115.82" cy="351.31" fill="rgba(255, 255, 136, 1)"></circle>
        <circle r="5" cx="1152.46" cy="492.4" fill="rgba(255, 255, 136, 1)"></circle>
        <circle r="5" cx="1269.58" cy="-72.52" fill="rgba(255, 255, 136, 1)"></circle>
        <circle r="5" cx="1269.87" cy="61.3" fill="rgba(255, 255, 136, 1)"></circle>
        <circle r="5" cx="1282.7" cy="211.67" fill="rgba(255, 255, 136, 1)"></circle>
        <circle r="5" cx="1298.41" cy="402.06" fill="rgba(255, 255, 136, 1)"></circle>
        <circle r="5" cx="1237.73" cy="554.43" fill="rgba(255, 255, 136, 1)"></circle>
        <circle r="5" cx="1288.24" cy="662.09" fill="rgba(255, 255, 136, 1)"></circle>
        <circle r="5" cx="1459.26" cy="-81.52" fill="rgba(255, 255, 136, 1)"></circle>
        <circle r="5" cx="1413.3" cy="95.62" fill="rgba(255, 255, 136, 1)"></circle>
        <circle r="5" cx="1403.79" cy="399" fill="rgba(255, 255, 136, 1)"></circle>
        <circle r="5" cx="1458.15" cy="541.06" fill="rgba(255, 255, 136, 1)"></circle>
        <circle r="5" cx="1393.98" cy="691.6" fill="rgba(255, 255, 136, 1)"></circle>
        <circle r="5" cx="1603.69" cy="-95.97" fill="rgba(255, 255, 136, 1)"></circle>
        <circle r="5" cx="1606.41" cy="44.53" fill="rgba(255, 255, 136, 1)"></circle>
        <circle r="5" cx="1549.37" cy="238.59" fill="rgba(255, 255, 136, 1)"></circle>
        <circle r="5" cx="1565.88" cy="348.73" fill="rgba(255, 255, 136, 1)"></circle>
        <circle r="5" cx="1610.95" cy="552.82" fill="rgba(255, 255, 136, 1)"></circle>
        <circle r="5" cx="1605.32" cy="663.25" fill="rgba(255, 255, 136, 1)"></circle>
        <path d="M-46.97 548.36L-46.97 548.36" stroke="hsl(56.69999999999999, 95.1%, 67.5%)" stroke-width="1.5"></path>
        <path d="M-46.97 548.36L-98.02 642.86" stroke="hsl(56.69999999999999, 95.1%, 67.5%)" stroke-width="1.5"></path>
        <path d="M-46.97 548.36L90.8 549.95" stroke="hsl(56.69999999999999, 95.1%, 67.5%)" stroke-width="1.5"></path>
        <path d="M-46.97 548.36L97.91 639.99" stroke="hsl(56.69999999999999, 95.1%, 67.5%)" stroke-width="1.5"></path>
        <path d="M-46.97 548.36L199.52 532.18" stroke="hsl(56.69999999999999, 95.1%, 67.5%)" stroke-width="1.5"></path>
        <path d="M199.52 532.18L199.52 532.18" stroke="hsl(56.69999999999999, 95.1%, 67.5%)" stroke-width="1.5"></path>
        <path d="M199.52 532.18L90.8 549.95" stroke="hsl(56.69999999999999, 95.1%, 67.5%)" stroke-width="1.5"></path>
        <path d="M199.52 532.18L190.1 665.05" stroke="hsl(56.69999999999999, 95.1%, 67.5%)" stroke-width="1.5"></path>
        <path d="M199.52 532.18L343.65 523.46" stroke="hsl(56.69999999999999, 95.1%, 67.5%)" stroke-width="1.5"></path>
        <path d="M199.52 532.18L97.91 639.99" stroke="hsl(56.69999999999999, 95.1%, 67.5%)" stroke-width="1.5"></path>
        <path d="M190.1 665.05L190.1 665.05" stroke="hsl(56.69999999999999, 95.1%, 67.5%)" stroke-width="1.5"></path>
        <path d="M190.1 665.05L97.91 639.99" stroke="hsl(56.69999999999999, 95.1%, 67.5%)" stroke-width="1.5"></path>
        <path d="M190.1 665.05L90.8 549.95" stroke="hsl(56.69999999999999, 95.1%, 67.5%)" stroke-width="1.5"></path>
        <path d="M190.1 665.05L380.14 682.92" stroke="hsl(56.69999999999999, 95.1%, 67.5%)" stroke-width="1.5"></path>
        <path d="M190.1 665.05L343.65 523.46" stroke="hsl(56.69999999999999, 95.1%, 67.5%)" stroke-width="1.5"></path>
        <path d="M190.1 665.05L-46.97 548.36" stroke="hsl(56.69999999999999, 95.1%, 67.5%)" stroke-width="1.5"></path>
        <path d="M490.38 503.59L490.38 503.59" stroke="hsl(56.69999999999999, 95.1%, 67.5%)" stroke-width="1.5"></path>
        <path d="M490.38 503.59L519.66 408.21" stroke="hsl(56.69999999999999, 95.1%, 67.5%)" stroke-width="1.5"></path>
        <path d="M490.38 503.59L343.65 523.46" stroke="hsl(56.69999999999999, 95.1%, 67.5%)" stroke-width="1.5"></path>
        <path d="M490.38 503.59L645.36 541.73" stroke="hsl(56.69999999999999, 95.1%, 67.5%)" stroke-width="1.5"></path>
        <path d="M490.38 503.59L502.06 675.9" stroke="hsl(56.69999999999999, 95.1%, 67.5%)" stroke-width="1.5"></path>
        <path d="M502.06 675.9L502.06 675.9" stroke="hsl(56.69999999999999, 95.1%, 67.5%)" stroke-width="1.5"></path>
        <path d="M502.06 675.9L380.14 682.92" stroke="hsl(56.69999999999999, 95.1%, 67.5%)" stroke-width="1.5"></path>
        <path d="M502.06 675.9L682.9 662.98" stroke="hsl(56.69999999999999, 95.1%, 67.5%)" stroke-width="1.5"></path>
        <path d="M645.36 541.73L645.36 541.73" stroke="hsl(56.69999999999999, 95.1%, 67.5%)" stroke-width="1.5"></path>
        <path d="M645.36 541.73L682.9 662.98" stroke="hsl(56.69999999999999, 95.1%, 67.5%)" stroke-width="1.5"></path>
        <path d="M645.36 541.73L708.56 402.56" stroke="hsl(56.69999999999999, 95.1%, 67.5%)" stroke-width="1.5"></path>
        <path d="M814.25 368.66L814.25 368.66" stroke="hsl(56.69999999999999, 95.1%, 67.5%)" stroke-width="1.5"></path>
        <path d="M814.25 368.66L708.56 402.56" stroke="hsl(56.69999999999999, 95.1%, 67.5%)" stroke-width="1.5"></path>
        <path d="M830.25 522.07L830.25 522.07" stroke="hsl(56.69999999999999, 95.1%, 67.5%)" stroke-width="1.5"></path>
        <path d="M830.25 522.07L814.51 671.13" stroke="hsl(56.69999999999999, 95.1%, 67.5%)" stroke-width="1.5"></path>
        <path d="M830.25 522.07L980.91 508.82" stroke="hsl(56.69999999999999, 95.1%, 67.5%)" stroke-width="1.5"></path>
        <path d="M830.25 522.07L814.25 368.66" stroke="hsl(56.69999999999999, 95.1%, 67.5%)" stroke-width="1.5"></path>
        <path d="M830.25 522.07L708.56 402.56" stroke="hsl(56.69999999999999, 95.1%, 67.5%)" stroke-width="1.5"></path>
        <path d="M830.25 522.07L645.36 541.73" stroke="hsl(56.69999999999999, 95.1%, 67.5%)" stroke-width="1.5"></path>
        <path d="M830.25 522.07L682.9 662.98" stroke="hsl(56.69999999999999, 95.1%, 67.5%)" stroke-width="1.5"></path>
        <path d="M1568.43 228.92L1568.43 228.92" stroke="hsl(56.69999999999999, 95.1%, 67.5%)" stroke-width="1.5"></path>
        <path d="M1568.43 228.92L1584.88 55.98" stroke="hsl(56.69999999999999, 95.1%, 67.5%)" stroke-width="1.5"></path>
        <path d="M1568.43 228.92L1551.97 403.33" stroke="hsl(56.69999999999999, 95.1%, 67.5%)" stroke-width="1.5"></path>
        <path d="M1568.43 228.92L1459.55 405.13" stroke="hsl(56.69999999999999, 95.1%, 67.5%)" stroke-width="1.5"></path>
        <path d="M1568.43 228.92L1402.91 90.79" stroke="hsl(56.69999999999999, 95.1%, 67.5%)" stroke-width="1.5"></path>
        <path d="M1568.43 228.92L1306.64 250.4" stroke="hsl(56.69999999999999, 95.1%, 67.5%)" stroke-width="1.5"></path>
        <path d="M1562.27 522.36L1562.27 522.36" stroke="hsl(56.69999999999999, 95.1%, 67.5%)" stroke-width="1.5"></path>
        <path d="M1562.27 522.36L1551.97 403.33" stroke="hsl(56.69999999999999, 95.1%, 67.5%)" stroke-width="1.5"></path>
        <path d="M1562.27 522.36L1597.93 657.98" stroke="hsl(56.69999999999999, 95.1%, 67.5%)" stroke-width="1.5"></path>
        <path d="M1562.27 522.36L1411.82 508.66" stroke="hsl(56.69999999999999, 95.1%, 67.5%)" stroke-width="1.5"></path>
        <path d="M1562.27 522.36L1459.55 405.13" stroke="hsl(56.69999999999999, 95.1%, 67.5%)" stroke-width="1.5"></path>
        <path d="M1562.27 522.36L1436.14 694.01" stroke="hsl(56.69999999999999, 95.1%, 67.5%)" stroke-width="1.5"></path>
        <path d="M1597.93 657.98L1597.93 657.98" stroke="hsl(56.69999999999999, 95.1%, 67.5%)" stroke-width="1.5"></path>
        <path d="M1597.93 657.98L1436.14 694.01" stroke="hsl(56.69999999999999, 95.1%, 67.5%)" stroke-width="1.5"></path>
        <path d="M1597.93 657.98L1411.82 508.66" stroke="hsl(56.69999999999999, 95.1%, 67.5%)" stroke-width="1.5"></path>
        <path d="M1597.93 657.98L1551.97 403.33" stroke="hsl(56.69999999999999, 95.1%, 67.5%)" stroke-width="1.5"></path>
        <path d="M1597.93 657.98L1459.55 405.13" stroke="hsl(56.69999999999999, 95.1%, 67.5%)" stroke-width="1.5"></path>
        <path d="M1597.93 657.98L1297.05 648.43" stroke="hsl(56.69999999999999, 95.1%, 67.5%)" stroke-width="1.5"></path>
        <path d="M-98.02 642.86L-98.02 642.86" stroke="hsl(56.69999999999999, 95.1%, 67.5%)" stroke-width="1.5"></path>
        <path d="M-98.02 642.86L97.91 639.99" stroke="hsl(56.69999999999999, 95.1%, 67.5%)" stroke-width="1.5"></path>
        <path d="M90.8 549.95L90.8 549.95" stroke="hsl(56.69999999999999, 95.1%, 67.5%)" stroke-width="1.5"></path>
        <path d="M90.8 549.95L97.91 639.99" stroke="hsl(56.69999999999999, 95.1%, 67.5%)" stroke-width="1.5"></path>
        <path d="M97.91 639.99L97.91 639.99" stroke="hsl(56.69999999999999, 95.1%, 67.5%)" stroke-width="1.5"></path>
        <path d="M97.91 639.99L343.65 523.46" stroke="hsl(56.69999999999999, 95.1%, 67.5%)" stroke-width="1.5"></path>
        <path d="M343.65 523.46L343.65 523.46" stroke="hsl(56.69999999999999, 95.1%, 67.5%)" stroke-width="1.5"></path>
        <path d="M343.65 523.46L380.14 682.92" stroke="hsl(56.69999999999999, 95.1%, 67.5%)" stroke-width="1.5"></path>
        <path d="M380.14 682.92L380.14 682.92" stroke="hsl(56.69999999999999, 95.1%, 67.5%)" stroke-width="1.5"></path>
        <path d="M519.66 408.21L519.66 408.21" stroke="hsl(56.69999999999999, 95.1%, 67.5%)" stroke-width="1.5"></path>
        <path d="M519.66 408.21L645.36 541.73" stroke="hsl(56.69999999999999, 95.1%, 67.5%)" stroke-width="1.5"></path>
        <path d="M519.66 408.21L708.56 402.56" stroke="hsl(56.69999999999999, 95.1%, 67.5%)" stroke-width="1.5"></path>
        <path d="M519.66 408.21L343.65 523.46" stroke="hsl(56.69999999999999, 95.1%, 67.5%)" stroke-width="1.5"></path>
        <path d="M708.56 402.56L708.56 402.56" stroke="hsl(56.69999999999999, 95.1%, 67.5%)" stroke-width="1.5"></path>
        <path d="M682.9 662.98L682.9 662.98" stroke="hsl(56.69999999999999, 95.1%, 67.5%)" stroke-width="1.5"></path>
        <path d="M682.9 662.98L814.51 671.13" stroke="hsl(56.69999999999999, 95.1%, 67.5%)" stroke-width="1.5"></path>
        <path d="M814.51 671.13L814.51 671.13" stroke="hsl(56.69999999999999, 95.1%, 67.5%)" stroke-width="1.5"></path>
        <path d="M814.51 671.13L969.74 693.83" stroke="hsl(56.69999999999999, 95.1%, 67.5%)" stroke-width="1.5"></path>
        <path d="M814.51 671.13L645.36 541.73" stroke="hsl(56.69999999999999, 95.1%, 67.5%)" stroke-width="1.5"></path>
        <path d="M814.51 671.13L980.91 508.82" stroke="hsl(56.69999999999999, 95.1%, 67.5%)" stroke-width="1.5"></path>
        <path d="M814.51 671.13L708.56 402.56" stroke="hsl(56.69999999999999, 95.1%, 67.5%)" stroke-width="1.5"></path>
        <path d="M980.11 249.95L980.11 249.95" stroke="hsl(56.69999999999999, 95.1%, 67.5%)" stroke-width="1.5"></path>
        <path d="M980.11 249.95L1093.95 360.09" stroke="hsl(56.69999999999999, 95.1%, 67.5%)" stroke-width="1.5"></path>
        <path d="M980.11 249.95L1143.03 213.24" stroke="hsl(56.69999999999999, 95.1%, 67.5%)" stroke-width="1.5"></path>
        <path d="M980.11 249.95L814.25 368.66" stroke="hsl(56.69999999999999, 95.1%, 67.5%)" stroke-width="1.5"></path>
        <path d="M980.11 249.95L980.91 508.82" stroke="hsl(56.69999999999999, 95.1%, 67.5%)" stroke-width="1.5"></path>
        <path d="M980.91 508.82L980.91 508.82" stroke="hsl(56.69999999999999, 95.1%, 67.5%)" stroke-width="1.5"></path>
        <path d="M980.91 508.82L1100.84 551.42" stroke="hsl(56.69999999999999, 95.1%, 67.5%)" stroke-width="1.5"></path>
        <path d="M980.91 508.82L969.74 693.83" stroke="hsl(56.69999999999999, 95.1%, 67.5%)" stroke-width="1.5"></path>
        <path d="M980.91 508.82L1093.95 360.09" stroke="hsl(56.69999999999999, 95.1%, 67.5%)" stroke-width="1.5"></path>
        <path d="M980.91 508.82L814.25 368.66" stroke="hsl(56.69999999999999, 95.1%, 67.5%)" stroke-width="1.5"></path>
        <path d="M980.91 508.82L1128.37 687.38" stroke="hsl(56.69999999999999, 95.1%, 67.5%)" stroke-width="1.5"></path>
        <path d="M969.74 693.83L969.74 693.83" stroke="hsl(56.69999999999999, 95.1%, 67.5%)" stroke-width="1.5"></path>
        <path d="M969.74 693.83L1128.37 687.38" stroke="hsl(56.69999999999999, 95.1%, 67.5%)" stroke-width="1.5"></path>
        <path d="M969.74 693.83L1100.84 551.42" stroke="hsl(56.69999999999999, 95.1%, 67.5%)" stroke-width="1.5"></path>
        <path d="M969.74 693.83L830.25 522.07" stroke="hsl(56.69999999999999, 95.1%, 67.5%)" stroke-width="1.5"></path>
        <path d="M969.74 693.83L682.9 662.98" stroke="hsl(56.69999999999999, 95.1%, 67.5%)" stroke-width="1.5"></path>
        <path d="M1143.03 213.24L1143.03 213.24" stroke="hsl(56.69999999999999, 95.1%, 67.5%)" stroke-width="1.5"></path>
        <path d="M1143.03 213.24L1093.95 360.09" stroke="hsl(56.69999999999999, 95.1%, 67.5%)" stroke-width="1.5"></path>
        <path d="M1143.03 213.24L1306.64 250.4" stroke="hsl(56.69999999999999, 95.1%, 67.5%)" stroke-width="1.5"></path>
        <path d="M1093.95 360.09L1093.95 360.09" stroke="hsl(56.69999999999999, 95.1%, 67.5%)" stroke-width="1.5"></path>
        <path d="M1093.95 360.09L1238.73 387.75" stroke="hsl(56.69999999999999, 95.1%, 67.5%)" stroke-width="1.5"></path>
        <path d="M1100.84 551.42L1100.84 551.42" stroke="hsl(56.69999999999999, 95.1%, 67.5%)" stroke-width="1.5"></path>
        <path d="M1100.84 551.42L1128.37 687.38" stroke="hsl(56.69999999999999, 95.1%, 67.5%)" stroke-width="1.5"></path>
        <path d="M1100.84 551.42L1251.91 529.42" stroke="hsl(56.69999999999999, 95.1%, 67.5%)" stroke-width="1.5"></path>
        <path d="M1100.84 551.42L1093.95 360.09" stroke="hsl(56.69999999999999, 95.1%, 67.5%)" stroke-width="1.5"></path>
        <path d="M1128.37 687.38L1128.37 687.38" stroke="hsl(56.69999999999999, 95.1%, 67.5%)" stroke-width="1.5"></path>
        <path d="M1128.37 687.38L1297.05 648.43" stroke="hsl(56.69999999999999, 95.1%, 67.5%)" stroke-width="1.5"></path>
        <path d="M1128.37 687.38L1251.91 529.42" stroke="hsl(56.69999999999999, 95.1%, 67.5%)" stroke-width="1.5"></path>
        <path d="M1273.34 -104.69L1273.34 -104.69" stroke="hsl(56.69999999999999, 95.1%, 67.5%)" stroke-width="1.5"></path>
        <path d="M1273.34 -104.69L1433.72 -71.22" stroke="hsl(56.69999999999999, 95.1%, 67.5%)" stroke-width="1.5"></path>
        <path d="M1273.34 -104.69L1277.58 62.62" stroke="hsl(56.69999999999999, 95.1%, 67.5%)" stroke-width="1.5"></path>
        <path d="M1273.34 -104.69L1402.91 90.79" stroke="hsl(56.69999999999999, 95.1%, 67.5%)" stroke-width="1.5"></path>
        <path d="M1273.34 -104.69L1604.05 -110.29" stroke="hsl(56.69999999999999, 95.1%, 67.5%)" stroke-width="1.5"></path>
        <path d="M1277.58 62.62L1277.58 62.62" stroke="hsl(56.69999999999999, 95.1%, 67.5%)" stroke-width="1.5"></path>
        <path d="M1277.58 62.62L1402.91 90.79" stroke="hsl(56.69999999999999, 95.1%, 67.5%)" stroke-width="1.5"></path>
        <path d="M1306.64 250.4L1306.64 250.4" stroke="hsl(56.69999999999999, 95.1%, 67.5%)" stroke-width="1.5"></path>
        <path d="M1306.64 250.4L1238.73 387.75" stroke="hsl(56.69999999999999, 95.1%, 67.5%)" stroke-width="1.5"></path>
        <path d="M1306.64 250.4L1402.91 90.79" stroke="hsl(56.69999999999999, 95.1%, 67.5%)" stroke-width="1.5"></path>
        <path d="M1306.64 250.4L1277.58 62.62" stroke="hsl(56.69999999999999, 95.1%, 67.5%)" stroke-width="1.5"></path>
        <path d="M1306.64 250.4L1459.55 405.13" stroke="hsl(56.69999999999999, 95.1%, 67.5%)" stroke-width="1.5"></path>
        <path d="M1238.73 387.75L1238.73 387.75" stroke="hsl(56.69999999999999, 95.1%, 67.5%)" stroke-width="1.5"></path>
        <path d="M1238.73 387.75L1251.91 529.42" stroke="hsl(56.69999999999999, 95.1%, 67.5%)" stroke-width="1.5"></path>
        <path d="M1251.91 529.42L1251.91 529.42" stroke="hsl(56.69999999999999, 95.1%, 67.5%)" stroke-width="1.5"></path>
        <path d="M1251.91 529.42L1297.05 648.43" stroke="hsl(56.69999999999999, 95.1%, 67.5%)" stroke-width="1.5"></path>
        <path d="M1251.91 529.42L1411.82 508.66" stroke="hsl(56.69999999999999, 95.1%, 67.5%)" stroke-width="1.5"></path>
        <path d="M1297.05 648.43L1297.05 648.43" stroke="hsl(56.69999999999999, 95.1%, 67.5%)" stroke-width="1.5"></path>
        <path d="M1297.05 648.43L1436.14 694.01" stroke="hsl(56.69999999999999, 95.1%, 67.5%)" stroke-width="1.5"></path>
        <path d="M1297.05 648.43L1411.82 508.66" stroke="hsl(56.69999999999999, 95.1%, 67.5%)" stroke-width="1.5"></path>
        <path d="M1433.72 -71.22L1433.72 -71.22" stroke="hsl(56.69999999999999, 95.1%, 67.5%)" stroke-width="1.5"></path>
        <path d="M1433.72 -71.22L1402.91 90.79" stroke="hsl(56.69999999999999, 95.1%, 67.5%)" stroke-width="1.5"></path>
        <path d="M1433.72 -71.22L1604.05 -110.29" stroke="hsl(56.69999999999999, 95.1%, 67.5%)" stroke-width="1.5"></path>
        <path d="M1433.72 -71.22L1584.88 55.98" stroke="hsl(56.69999999999999, 95.1%, 67.5%)" stroke-width="1.5"></path>
        <path d="M1402.91 90.79L1402.91 90.79" stroke="hsl(56.69999999999999, 95.1%, 67.5%)" stroke-width="1.5"></path>
        <path d="M1402.91 90.79L1584.88 55.98" stroke="hsl(56.69999999999999, 95.1%, 67.5%)" stroke-width="1.5"></path>
        <path d="M1459.55 405.13L1459.55 405.13" stroke="hsl(56.69999999999999, 95.1%, 67.5%)" stroke-width="1.5"></path>
        <path d="M1459.55 405.13L1551.97 403.33" stroke="hsl(56.69999999999999, 95.1%, 67.5%)" stroke-width="1.5"></path>
        <path d="M1459.55 405.13L1411.82 508.66" stroke="hsl(56.69999999999999, 95.1%, 67.5%)" stroke-width="1.5"></path>
        <path d="M1411.82 508.66L1411.82 508.66" stroke="hsl(56.69999999999999, 95.1%, 67.5%)" stroke-width="1.5"></path>
        <path d="M1436.14 694.01L1436.14 694.01" stroke="hsl(56.69999999999999, 95.1%, 67.5%)" stroke-width="1.5"></path>
        <path d="M1436.14 694.01L1411.82 508.66" stroke="hsl(56.69999999999999, 95.1%, 67.5%)" stroke-width="1.5"></path>
        <path d="M1604.05 -110.29L1604.05 -110.29" stroke="hsl(56.69999999999999, 95.1%, 67.5%)" stroke-width="1.5"></path>
        <path d="M1604.05 -110.29L1584.88 55.98" stroke="hsl(56.69999999999999, 95.1%, 67.5%)" stroke-width="1.5"></path>
        <path d="M1584.88 55.98L1584.88 55.98" stroke="hsl(56.69999999999999, 95.1%, 67.5%)" stroke-width="1.5"></path>
        <path d="M1551.97 403.33L1551.97 403.33" stroke="hsl(56.69999999999999, 95.1%, 67.5%)" stroke-width="1.5"></path>
        <circle r="25" cx="-46.97" cy="548.36" fill="url(&quot;#SvgjsRadialGradient1015&quot;)"></circle>
        <circle r="25" cx="199.52" cy="532.18" fill="url(&quot;#SvgjsRadialGradient1015&quot;)"></circle>
        <circle r="25" cx="190.1" cy="665.05" fill="url(&quot;#SvgjsRadialGradient1015&quot;)"></circle>
        <circle r="25" cx="490.38" cy="503.59" fill="url(&quot;#SvgjsRadialGradient1015&quot;)"></circle>
        <circle r="25" cx="502.06" cy="675.9" fill="url(&quot;#SvgjsRadialGradient1015&quot;)"></circle>
        <circle r="25" cx="645.36" cy="541.73" fill="url(&quot;#SvgjsRadialGradient1015&quot;)"></circle>
        <circle r="25" cx="814.25" cy="368.66" fill="url(&quot;#SvgjsRadialGradient1015&quot;)"></circle>
        <circle r="25" cx="830.25" cy="522.07" fill="url(&quot;#SvgjsRadialGradient1015&quot;)"></circle>
        <circle r="25" cx="1568.43" cy="228.92" fill="url(&quot;#SvgjsRadialGradient1015&quot;)"></circle>
        <circle r="25" cx="1562.27" cy="522.36" fill="url(&quot;#SvgjsRadialGradient1015&quot;)"></circle>
        <circle r="25" cx="1597.93" cy="657.98" fill="url(&quot;#SvgjsRadialGradient1015&quot;)"></circle>
        <circle r="5" cx="-98.02" cy="642.86" fill="#fcf688"></circle>
        <circle r="5" cx="90.8" cy="549.95" fill="#fcf688"></circle>
        <circle r="5" cx="97.91" cy="639.99" fill="#fcf688"></circle>
        <circle r="5" cx="343.65" cy="523.46" fill="#fcf688"></circle>
        <circle r="5" cx="380.14" cy="682.92" fill="#fcf688"></circle>
        <circle r="5" cx="519.66" cy="408.21" fill="#fcf688"></circle>
        <circle r="5" cx="708.56" cy="402.56" fill="#fcf688"></circle>
        <circle r="5" cx="682.9" cy="662.98" fill="#fcf688"></circle>
        <circle r="5" cx="814.51" cy="671.13" fill="#fcf688"></circle>
        <circle r="5" cx="980.11" cy="249.95" fill="#fcf688"></circle>
        <circle r="5" cx="980.91" cy="508.82" fill="#fcf688"></circle>
        <circle r="5" cx="969.74" cy="693.83" fill="#fcf688"></circle>
        <circle r="5" cx="1143.03" cy="213.24" fill="#fcf688"></circle>
        <circle r="5" cx="1093.95" cy="360.09" fill="#fcf688"></circle>
        <circle r="5" cx="1100.84" cy="551.42" fill="#fcf688"></circle>
        <circle r="5" cx="1128.37" cy="687.38" fill="#fcf688"></circle>
        <circle r="5" cx="1273.34" cy="-104.69" fill="#fcf688"></circle>
        <circle r="5" cx="1277.58" cy="62.62" fill="#fcf688"></circle>
        <circle r="5" cx="1306.64" cy="250.4" fill="#fcf688"></circle>
        <circle r="5" cx="1238.73" cy="387.75" fill="#fcf688"></circle>
        <circle r="5" cx="1251.91" cy="529.42" fill="#fcf688"></circle>
        <circle r="5" cx="1297.05" cy="648.43" fill="#fcf688"></circle>
        <circle r="5" cx="1433.72" cy="-71.22" fill="#fcf688"></circle>
        <circle r="5" cx="1402.91" cy="90.79" fill="#fcf688"></circle>
        <circle r="5" cx="1459.55" cy="405.13" fill="#fcf688"></circle>
        <circle r="5" cx="1411.82" cy="508.66" fill="#fcf688"></circle>
        <circle r="5" cx="1436.14" cy="694.01" fill="#fcf688"></circle>
        <circle r="5" cx="1604.05" cy="-110.29" fill="#fcf688"></circle>
        <circle r="5" cx="1584.88" cy="55.98" fill="#fcf688"></circle>
        <circle r="5" cx="1551.97" cy="403.33" fill="#fcf688"></circle>
    </g>
    <defs>
        <mask id="SvgjsMask1014">
            <rect width="1440" height="560" fill="#ffffff"></rect>
        </mask>
        <radialGradient id="SvgjsRadialGradient1015">
            <stop stop-color="#ffffff" offset="0.1"></stop>
            <stop stop-color="rgba(249, 236, 16, 1)" offset="0.2"></stop>
            <stop stop-color="rgba(249, 236, 16, 0)" offset="1"></stop>
        </radialGradient>
    </defs>
</svg>